<svg width="44" height="44" viewBox="0 0 44 44" fill="none" xmlns="http://www.w3.org/2000/svg">
    <!-- Arc 1: Very Long -->
    <path d="M41.9 22A19.9 19.9 0 0 1 15.2 40.8" stroke="#18181b" stroke-width="0.8" stroke-linecap="round"/>
    <circle cx="41.9" cy="22" r="1.5" fill="#18181b"/>
    <circle cx="15.2" cy="40.8" r="1.5" fill="#18181b"/>

    <!-- Arc 2: Short -->
    <path d="M9.2 37.3A19.9 19.9 0 0 1 4.7 32" stroke="#18181b" stroke-width="0.8" stroke-linecap="round"/>
    <circle cx="9.2" cy="37.3" r="1.5" fill="#18181b"/>
    <circle cx="4.7" cy="32" r="1.5" fill="#18181b"/>

    <!-- Arc 3: Medium-Long -->
    <path d="M2.3 25.5A19.9 19.9 0 0 1 12 4.7" stroke="#18181b" stroke-width="0.8" stroke-linecap="round"/>
    <circle cx="2.3" cy="25.5" r="1.5" fill="#18181b"/>
    <circle cx="12" cy="4.7" r="1.5" fill="#18181b"/>

    <!-- Arc 4: Long -->
    <path d="M18.5 2.3A19.9 19.9 0 0 1 40.8 15.2" stroke="#18181b" stroke-width="0.8" stroke-linecap="round"/>
    <circle cx="18.5" cy="2.3" r="1.5" fill="#18181b"/>
    <circle cx="40.8" cy="15.2" r="1.5" fill="#18181b"/>
</svg>
