<svg width="26" height="26" viewBox="0 0 26 26" fill="none" xmlns="http://www.w3.org/2000/svg">
<path fill-rule="evenodd" clip-rule="evenodd" d="M13 19.5C16.5898 19.5 19.5 16.5898 19.5 13C19.5 9.41015 16.5898 6.5 13 6.5C9.41015 6.5 6.5 9.41015 6.5 13C6.5 16.5898 9.41015 19.5 13 19.5ZM13 17.3333C15.3932 17.3333 17.3333 15.3932 17.3333 13C17.3333 10.6068 15.3932 8.66667 13 8.66667C10.6068 8.66667 8.66667 10.6068 8.66667 13C8.66667 15.3932 10.6068 17.3333 13 17.3333Z" fill="#1C1C1E"/>
<path d="M19.5052 5.41797C18.9069 5.41797 18.4219 5.903 18.4219 6.5013C18.4219 7.09961 18.9069 7.58464 19.5052 7.58464C20.1035 7.58464 20.5885 7.09961 20.5885 6.5013C20.5885 5.903 20.1035 5.41797 19.5052 5.41797Z" fill="#1C1C1E"/>
<path fill-rule="evenodd" clip-rule="evenodd" d="M1.78658 4.6311C1.07812 6.02152 1.07812 7.8417 1.07812 11.482V14.5154C1.07812 18.1557 1.07812 19.9759 1.78658 21.3663C2.40976 22.5893 3.40413 23.5837 4.62719 24.2069C6.01762 24.9154 7.83779 24.9154 11.4781 24.9154H14.5115C18.1518 24.9154 19.972 24.9154 21.3623 24.2069C22.5854 23.5837 23.5798 22.5893 24.203 21.3663C24.9115 19.9759 24.9115 18.1557 24.9115 14.5154V11.482C24.9115 7.8417 24.9115 6.02152 24.203 4.6311C23.5798 3.40803 22.5854 2.41366 21.3623 1.79049C19.972 1.08203 18.1518 1.08203 14.5115 1.08203H11.4781C7.83779 1.08203 6.01762 1.08203 4.62719 1.79049C3.40413 2.41366 2.40976 3.40803 1.78658 4.6311ZM14.5115 3.2487H11.4781C9.6222 3.2487 8.36056 3.25039 7.38538 3.33006C6.43547 3.40767 5.9497 3.54834 5.61083 3.721C4.79546 4.13646 4.13255 4.79937 3.71709 5.61474C3.54443 5.95361 3.40376 6.43937 3.32615 7.38928C3.24648 8.36447 3.24479 9.62611 3.24479 11.482V14.5154C3.24479 16.3713 3.24648 17.6329 3.32615 18.6081C3.40376 19.5581 3.54443 20.0438 3.71709 20.3827C4.13255 21.198 4.79546 21.8609 5.61083 22.2764C5.9497 22.449 6.43547 22.5898 7.38538 22.6673C8.36056 22.747 9.6222 22.7487 11.4781 22.7487H14.5115C16.3674 22.7487 17.629 22.747 18.6042 22.6673C19.5542 22.5898 20.0399 22.449 20.3788 22.2764C21.1941 21.8609 21.857 21.198 22.2725 20.3827C22.4451 20.0438 22.5859 19.5581 22.6634 18.6081C22.7431 17.6329 22.7448 16.3713 22.7448 14.5154V11.482C22.7448 9.62611 22.7431 8.36447 22.6634 7.38928C22.5859 6.43937 22.4451 5.95361 22.2725 5.61474C21.857 4.79937 21.1941 4.13646 20.3788 3.721C20.0399 3.54834 19.5542 3.40767 18.6042 3.33006C17.629 3.25039 16.3674 3.2487 14.5115 3.2487Z" fill="#1C1C1E"/>
</svg>
