<svg width="27" height="27" viewBox="0 0 27 27" fill="none" xmlns="http://www.w3.org/2000/svg">
<g opacity="0.2">
<path d="M9.28517 14.2254L23.6408 3.85743L23.6409 3.85704C23.5384 3.80992 23.4272 3.78421 23.3144 3.78149C23.2015 3.77877 23.0893 3.79909 22.9846 3.8412L3.51961 11.4882C3.34996 11.5548 3.20646 11.6746 3.11058 11.8296C3.01469 11.9846 2.97157 12.1665 2.98768 12.348C3.00378 12.5296 3.07824 12.701 3.19991 12.8367C3.32158 12.9724 3.48393 13.0651 3.66265 13.1008L9.28517 14.2254Z" fill="#1C1C1E"/>
</g>
<g opacity="0.2">
<path d="M14.0175 18.3925L10.7216 21.6885C10.6036 21.8065 10.4533 21.8868 10.2896 21.9194C10.1259 21.9519 9.95629 21.9352 9.80211 21.8714C9.64794 21.8075 9.51616 21.6994 9.42345 21.5606C9.33074 21.4219 9.28125 21.2587 9.28125 21.0918V14.2246L14.0175 18.3925Z" fill="#1C1C1E"/>
</g>
<path d="M24.3942 3.34682C24.1617 3.14606 23.8787 3.01274 23.5758 2.96129C23.273 2.90983 22.9619 2.94222 22.6761 3.05492L3.21108 10.7019C2.8718 10.8352 2.5848 11.0748 2.39303 11.3848C2.20126 11.6948 2.11502 12.0585 2.14723 12.4216C2.17943 12.7847 2.32834 13.1276 2.57169 13.3991C2.81503 13.6705 3.13971 13.8558 3.49715 13.9273L8.44141 14.9161V21.0917C8.44113 21.4256 8.53993 21.7521 8.72531 22.0298C8.91068 22.3074 9.1743 22.5239 9.48276 22.6517C9.79123 22.7794 10.1307 22.8128 10.4581 22.7475C10.7855 22.6822 11.0862 22.5212 11.3221 22.2849L14.0583 19.5488L18.2113 23.2034C18.517 23.4749 18.9116 23.6251 19.3205 23.6256C19.4983 23.6254 19.6749 23.5973 19.844 23.5425C20.1229 23.4541 20.3737 23.294 20.5714 23.0784C20.7692 22.8627 20.9069 22.599 20.9709 22.3135L24.938 5.00259C25.007 4.70326 24.9929 4.39073 24.897 4.09886C24.8012 3.80699 24.6273 3.54692 24.3942 3.34682ZM9.08968 13.3248L3.82829 12.2726L18.5603 6.48493L9.08968 13.3248ZM10.1289 21.0909V16.0909L12.7888 18.4316L10.1289 21.0909ZM19.326 21.9365L10.6362 14.2894L23.1495 5.25211L19.326 21.9365Z" fill="#1C1C1E"/>
</svg>
